{
  "source": "C:\\Users\\Peter\\Desktop\\stuff\\MIUN\\quantitative_research\\video_compression\\videos\\BVI-HD\\BVI-HD_CDVL_videos\\ORIG\\PlasmaAveragePan_1920x1080_60fps.mp4",
  "output": "C:\\Users\\Peter\\Desktop\\stuff\\MIUN\\quantitative_research\\video_compression\\compressed_videos\\BVI-HD\\h264\\2.5\\PlasmaAveragePan_1920x1080_60fps_h264.mp4",
  "codec": "h264",
  "ok": "Input #0, mov,mp4,m4a,3gp,3g2,mj2, from 'C:\\Users\\Peter\\Desktop\\stuff\\MIUN\\quantitative_research\\video_compression\\videos\\BVI-HD\\BVI-HD_CDVL_videos\\ORIG\\PlasmaAveragePan_1920x1080_60fps.mp4':\n  Metadata:\n    major_brand     : isom\n    minor_version   : 512\n    compatible_brands: isomiso2avc1mp41\n    encoder         : Lavf54.28.101\n  Duration: 00:00:05.00, start: 0.000000, bitrate: 73730 kb/s\n  Stream #0:0[0x1](und): Video: h264 (High 4:4:4 Predictive) (avc1 / 0x31637661), yuv420p(progressive), 1920x1080, 73727 kb/s, 60 fps, 60 tbr, 60 tbn (default)\n    Metadata:\n      handler_name    : VideoHandler\n      vendor_id       : [0][0][0][0]\n[out#0/mp4 @ 000001e39a77a600] Codec AVOption b:a (set bitrate (in bits/s)) has not been used for any stream. The most likely reason is either wrong type (e.g. a video option with no video streams) or that it is a private option of some decoder which was not actually used for any stream.\nStream mapping:\n  Stream #0:0 -> #0:0 (h264 (native) -> h264 (libx264))\nPress [q] to stop, [?] for help\n[libx264 @ 000001e39b0e0280] using cpu capabilities: MMX2 SSE2Fast SSSE3 SSE4.2 AVX FMA3 BMI2 AVX2\n[libx264 @ 000001e39b0e0280] profile High, level 5.0, 4:2:0, 8-bit\n[libx264 @ 000001e39b0e0280] 264 - core 165 r3222 b35605a - H.264/MPEG-4 AVC codec - Copyleft 2003-2025 - http://www.videolan.org/x264.html - options: cabac=1 ref=5 deblock=1:0:0 analyse=0x3:0x113 me=hex subme=8 psy=1 psy_rd=1.00:0.00 mixed_ref=1 me_range=16 chroma_me=1 trellis=2 8x8dct=1 cqm=0 deadzone=21,11 fast_pskip=1 chroma_qp_offset=-2 threads=18 lookahead_threads=3 sliced_threads=0 nr=0 decimate=1 interlaced=0 bluray_compat=0 constrained_intra=0 bframes=3 b_pyramid=2 b_adapt=1 b_bias=0 direct=3 weightb=1 open_gop=0 weightp=2 keyint=250 keyint_min=25 scenecut=40 intra_refresh=0 rc_lookahead=50 rc=cbr mbtree=1 bitrate=2500 ratetol=1.0 qcomp=0.60 qpmin=0 qpmax=69 qpstep=4 vbv_maxrate=2500 vbv_bufsize=2500 nal_hrd=none filler=0 ip_ratio=1.40 aq=1:1.00\nOutput #0, mp4, to 'C:\\Users\\Peter\\Desktop\\stuff\\MIUN\\quantitative_research\\video_compression\\compressed_videos\\BVI-HD\\h264\\2.5\\PlasmaAveragePan_1920x1080_60fps_h264.mp4':\n  Metadata:\n    major_brand     : isom\n    minor_version   : 512\n    compatible_brands: isomiso2avc1mp41\n    encoder         : Lavf62.3.100\n  Stream #0:0(und): Video: h264 (avc1 / 0x31637661), yuv420p(tv, progressive), 1920x1080, q=2-31, 2500 kb/s, 60 fps, 15360 tbn (default)\n    Metadata:\n      encoder         : Lavc62.11.100 libx264\n      handler_name    : VideoHandler\n      vendor_id       : [0][0][0][0]\n    Side data:\n      cpb: bitrate max/min/avg: 2500000/0/2500000 buffer size: 2500000 vbv_delay: N/A\nframe=    0 fps=0.0 q=0.0 size=       0KiB time=N/A bitrate=N/A speed=N/A elapsed=0:00:00.51    \nframe=   36 fps= 35 q=35.0 size=       0KiB time=00:00:00.56 bitrate=   0.7kbits/s speed=0.544x elapsed=0:00:01.04    \nframe=   80 fps= 50 q=36.0 size=     256KiB time=00:00:01.26 bitrate=1655.9kbits/s speed=0.799x elapsed=0:00:01.58    \nframe=  108 fps= 50 q=35.0 size=     256KiB time=00:00:01.76 bitrate=1187.3kbits/s speed=0.818x elapsed=0:00:02.15    \nframe=  147 fps= 55 q=36.0 size=     512KiB time=00:00:02.35 bitrate=1785.0kbits/s speed=0.88x elapsed=0:00:02.67    \nframe=  207 fps= 64 q=35.0 size=     768KiB time=00:00:03.41 bitrate=1841.5kbits/s speed=1.05x elapsed=0:00:03.24    \nframe=  277 fps= 74 q=33.0 size=    1280KiB time=00:00:04.51 bitrate=2321.7kbits/s speed= 1.2x elapsed=0:00:03.76    \n[mp4 @ 000001e39a77a700] Starting second pass: moving the moov atom to the beginning of the file\n[out#0/mp4 @ 000001e39a77a600] video:1471KiB audio:0KiB subtitle:0KiB other streams:0KiB global headers:0KiB muxing overhead: 0.297120%\nframe=  300 fps= 77 q=-1.0 Lsize=    1475KiB time=00:00:04.96 bitrate=2433.2kbits/s speed=1.27x elapsed=0:00:03.91    \n[libx264 @ 000001e39b0e0280] frame I:3     Avg QP:21.90  size: 12727\n[libx264 @ 000001e39b0e0280] frame P:75    Avg QP:32.41  size:  7277\n[libx264 @ 000001e39b0e0280] frame B:222   Avg QP:33.86  size:  4150\n[libx264 @ 000001e39b0e0280] consecutive B-frames:  1.0%  0.7%  1.0% 97.3%\n[libx264 @ 000001e39b0e0280] mb I  I16..4: 27.7% 71.7%  0.6%\n[libx264 @ 000001e39b0e0280] mb P  I16..4:  1.2%  7.8%  0.1%  P16..4:  6.3%  1.2%  0.4%  0.0%  0.0%    skip:83.1%\n[libx264 @ 000001e39b0e0280] mb B  I16..4:  0.2%  0.9%  0.0%  B16..8: 10.7%  2.0%  0.1%  direct: 0.5%  skip:85.6%  L0:50.5% L1:44.6% BI: 4.9%\n[libx264 @ 000001e39b0e0280] 8x8 transform intra:81.0% inter:98.9%\n[libx264 @ 000001e39b0e0280] direct mvs  spatial:95.5% temporal:4.5%\n[libx264 @ 000001e39b0e0280] coded y,uvDC,uvAC intra: 23.4% 57.2% 38.8% inter: 1.7% 5.6% 0.3%\n[libx264 @ 000001e39b0e0280] i16 v,h,dc,p: 59% 18%  6% 17%\n[libx264 @ 000001e39b0e0280] i8 v,h,dc,ddl,ddr,vr,hd,vl,hu: 18% 10% 32%  5%  7%  7%  8%  5%  6%\n[libx264 @ 000001e39b0e0280] i4 v,h,dc,ddl,ddr,vr,hd,vl,hu:  9% 19% 10%  6% 18%  9% 16%  5%  8%\n[libx264 @ 000001e39b0e0280] i8c dc,h,v,p: 61% 16% 14% 10%\n[libx264 @ 000001e39b0e0280] Weighted P-Frames: Y:1.3% UV:1.3%\n[libx264 @ 000001e39b0e0280] ref P L0: 50.3%  2.9% 20.8% 14.0% 11.8%  0.2%\n[libx264 @ 000001e39b0e0280] ref B L0: 76.2% 14.4%  6.9%  2.5%\n[libx264 @ 000001e39b0e0280] ref B L1: 94.6%  5.4%\n[libx264 @ 000001e39b0e0280] kb/s:2408.58\n",
  "seconds": 4.107325077056885,
  "probe_out": {}
}